<svg width="50" height="50" viewBox="0 0 50 50" fill="none" xmlns="http://www.w3.org/2000/svg">
<rect x="0.5" y="0.5" width="49" height="49" rx="4.5" stroke="#272C34"/>
<path d="M11.2158 32.9125H4.6875V31.2284H6.84973V18.0575H4.6875V16.3735H11.2158V18.0575H9.05354V31.2284H11.2158V32.9125ZM18.2222 32.9125H15.561V29.7523H18.2222V32.9125ZM32.2456 32.1328C31.5595 32.4655 30.8942 32.7253 30.2704 32.9125C29.6467 33.0996 28.9814 33.1827 28.2745 33.1827C27.3805 33.1827 26.5593 33.058 25.8108 32.7877C25.0624 32.5278 24.4283 32.1328 23.8981 31.6026C23.3471 31.0621 22.9313 30.3968 22.6403 29.5755C22.3388 28.7647 22.1933 27.8187 22.1933 26.7272C22.1933 24.7001 22.7546 23.1096 23.8669 21.9558C24.9792 20.7915 26.445 20.2197 28.2745 20.2197C28.9814 20.2197 29.6883 20.3237 30.3744 20.5212C31.0501 20.7187 31.6842 20.9682 32.2456 21.2489V23.567H32.1416C31.5075 23.0785 30.8526 22.7042 30.1665 22.4339C29.4908 22.1741 28.8255 22.0389 28.181 22.0389C27.0063 22.0389 26.0707 22.4339 25.3846 23.2344C24.6985 24.0244 24.3555 25.1887 24.3555 26.7272C24.3555 28.2138 24.6881 29.3676 25.3638 30.1681C26.0291 30.9685 26.9751 31.3635 28.181 31.3635C28.6072 31.3635 29.0438 31.3116 29.47 31.2076C29.9066 31.0933 30.3016 30.9477 30.6551 30.771C30.9565 30.6151 31.2372 30.4592 31.5075 30.2824C31.7674 30.1161 31.9857 29.9706 32.1416 29.8458H32.2456V32.1328ZM45.3125 32.9125H43.2126V25.854C43.2126 25.2823 43.1815 24.7521 43.1191 24.2427C43.0463 23.7438 42.932 23.3591 42.7448 23.0785C42.5577 22.7666 42.2978 22.5379 41.9444 22.382C41.591 22.226 41.144 22.1533 40.5826 22.1533C40.0213 22.1533 39.4183 22.2988 38.7946 22.5795C38.1709 22.8602 37.5784 23.2136 37.0066 23.6502V32.9125H34.9172V15.625H37.0066V21.8934C37.6615 21.3528 38.3268 20.937 39.0337 20.6252C39.7302 20.3237 40.4475 20.1782 41.1751 20.1782C42.5161 20.1782 43.5453 20.5732 44.2522 21.384C44.9591 22.1949 45.3125 23.3487 45.3125 24.8665V32.9125Z" fill="#1A1D23"/>
</svg>
