<svg width="96" height="96" viewBox="0 0 96 96" fill="none" xmlns="http://www.w3.org/2000/svg">
<path d="M86.4009 0.960938H9.60094C4.8292 0.960938 0.960938 4.8292 0.960938 9.60094V86.4009C0.960938 91.1727 4.8292 95.0409 9.60094 95.0409H86.4009C91.1727 95.0409 95.0409 91.1727 95.0409 86.4009V9.60094C95.0409 4.8292 91.1727 0.960938 86.4009 0.960938Z" stroke="#272C34"/>
<path d="M21.5343 63.192H9V59.9585H13.1515V34.6704H9V31.4371H21.5343V34.6704H17.3828V59.9585H21.5343V63.192ZM34.9866 63.192H29.8771V57.1244H34.9866V63.192ZM61.9116 61.695C60.5942 62.3338 59.3169 62.8326 58.1192 63.192C56.9217 63.5512 55.6443 63.7108 54.287 63.7108C52.5706 63.7108 50.9939 63.4714 49.5567 62.9524C48.1198 62.4534 46.9023 61.695 45.8843 60.677C44.8264 59.6392 44.0281 58.3619 43.4694 56.785C42.8905 55.2282 42.6111 53.4119 42.6111 51.3162C42.6111 47.4242 43.6888 44.3704 45.8244 42.1551C47.9601 39.9197 50.7744 38.8218 54.287 38.8218C55.6443 38.8218 57.0015 39.0215 58.3188 39.4007C59.6162 39.7799 60.8337 40.2589 61.9116 40.7979V45.2486H61.7119C60.4944 44.3107 59.237 43.5921 57.9197 43.0731C56.6223 42.5743 55.345 42.3147 54.1075 42.3147C51.8521 42.3147 50.0557 43.0731 48.7384 44.61C47.4211 46.1268 46.7626 48.3623 46.7626 51.3162C46.7626 54.1705 47.4011 56.3858 48.6985 57.9228C49.9759 59.4595 51.7922 60.2179 54.1075 60.2179C54.9258 60.2179 55.7641 60.1183 56.5824 59.9186C57.4207 59.6991 58.1791 59.4196 58.8578 59.0803C59.4365 58.781 59.9754 58.4817 60.4944 58.1422C60.9934 57.8229 61.4125 57.5436 61.7119 57.3039H61.9116V61.695ZM87 63.192H82.9682V49.6397C82.9682 48.542 82.9085 47.524 82.7887 46.546C82.6489 45.5881 82.4294 44.8495 82.07 44.3107C81.7108 43.7119 81.2118 43.2728 80.5332 42.9734C79.8547 42.6739 78.9965 42.5343 77.9186 42.5343C76.8409 42.5343 75.6831 42.8137 74.4856 43.3526C73.2881 43.8916 72.1505 44.5701 71.0527 45.4084V63.192H67.041V30H71.0527V42.0353C72.3101 40.9974 73.5875 40.199 74.9447 39.6004C76.282 39.0215 77.6592 38.7421 79.0562 38.7421C81.6309 38.7421 83.607 39.5005 84.9642 41.0573C86.3215 42.6142 87 44.8295 87 47.7437V63.192Z" fill="#1A1D23"/>
</svg>
