<svg width="40" height="40" viewBox="0 0 40 40" fill="none" xmlns="http://www.w3.org/2000/svg">
<g clip-path="url(#clip0)">
<path d="M34.3994 1.87934L39.6851 11.0365C40.128 11.8222 39.9922 12.7365 39.4708 13.3936L28.1922 32.865C27.233 34.5263 25.8535 35.9059 24.1921 36.865C22.5308 37.8242 20.6463 38.3291 18.728 38.3291C16.8096 38.3291 14.9251 37.8242 13.2638 36.865C11.6025 35.9059 10.2229 34.5263 9.26367 32.865L18.7065 22.5793L30.7851 1.87934C30.969 1.562 31.2331 1.29858 31.5509 1.11545C31.8687 0.932329 32.229 0.835937 32.5958 0.835938C32.9626 0.835938 33.3229 0.932329 33.6407 1.11545C33.9585 1.29858 34.2226 1.562 34.4065 1.87934H34.3994Z" fill="#FFCA01"/>
<path d="M20.8081 26.0722L14.8081 15.7365C14.2938 14.8436 13.5795 14.3008 12.6224 14.3008H2.04378C0.472354 14.3008 2.90093 21.9579 3.68664 23.3936L9.27235 32.8722C10.2316 34.5335 11.6111 35.913 13.2725 36.8722C14.9338 37.8313 16.8183 38.3363 18.7366 38.3363C20.655 38.3363 22.5395 37.8313 24.2008 36.8722C25.8621 35.913 27.2417 34.5335 28.2009 32.8722L32.1295 26.0722C31.556 27.0661 30.7309 27.8914 29.7372 28.4652C28.7435 29.039 27.6163 29.3411 26.4688 29.3411C25.3213 29.3411 24.1941 29.039 23.2004 28.4652C22.2067 27.8914 21.3816 27.0661 20.8081 26.0722Z" fill="#FC363B"/>
<path d="M9.18655 26.5936L14.4723 17.4364C14.6627 17.1172 14.764 16.7528 14.7658 16.3812C14.7675 16.0095 14.6695 15.6441 14.482 15.3232C14.2946 15.0022 14.0245 14.7374 13.6999 14.5564C13.3753 14.3753 13.0081 14.2845 12.6366 14.2936H2.10084C1.73346 14.2956 1.37295 14.3933 1.05483 14.577C0.736704 14.7608 0.471951 15.0243 0.286659 15.3415C0.101368 15.6587 0.00193498 16.0187 -0.00184139 16.3861C-0.00561777 16.7535 0.0863933 17.1155 0.265124 17.4364L5.55084 26.5936C5.73379 26.9143 5.99831 27.1809 6.31758 27.3663C6.63685 27.5517 6.99949 27.6494 7.36869 27.6494C7.7379 27.6494 8.10054 27.5517 8.41981 27.3663C8.73907 27.1809 9.0036 26.9143 9.18655 26.5936Z" fill="#ED1616"/>
<path d="M30.7277 1.87824L25.4419 11.0354C25.2515 11.3546 25.1502 11.719 25.1485 12.0907C25.1467 12.4623 25.2447 12.8277 25.4322 13.1486C25.6196 13.4696 25.8897 13.7344 26.2143 13.9155C26.5389 14.0966 26.9061 14.1873 27.2777 14.1782H37.8991C39.4705 14.1782 40.5205 12.4711 39.7277 11.0354L34.442 1.87824C34.2485 1.5589 33.9759 1.29484 33.6506 1.11158C33.3253 0.928313 32.9582 0.832031 32.5848 0.832031C32.2114 0.832031 31.8443 0.928313 31.519 1.11158C31.1937 1.29484 30.9212 1.5589 30.7277 1.87824Z" fill="#FED84E"/>
</g>
<defs>
<clipPath id="clip0">
<rect width="40" height="40" fill="white"/>
</clipPath>
</defs>
</svg>
