<svg width="40" height="40" viewBox="0 0 40 40" fill="none" xmlns="http://www.w3.org/2000/svg">
<path d="M20.005 0H19.995C8.9675 0 0 8.97 0 20C0 24.375 1.41 28.43 3.8075 31.7225L1.315 39.1525L9.0025 36.695C12.165 38.79 15.9375 40 20.005 40C31.0325 40 40 31.0275 40 20C40 8.9725 31.0325 0 20.005 0Z" fill="#4CAF50"/>
<path d="M31.6434 28.2434C31.1609 29.6059 29.2459 30.7359 27.7184 31.0659C26.6734 31.2884 25.3084 31.4659 20.7134 29.5609C14.8359 27.1259 11.0509 21.1534 10.7559 20.7659C10.4734 20.3784 8.38086 17.6034 8.38086 14.7334C8.38086 11.8634 9.83836 10.4659 10.4259 9.86594C10.9084 9.37344 11.7059 9.14844 12.4709 9.14844C12.7184 9.14844 12.9409 9.16094 13.1409 9.17094C13.7284 9.19594 14.0234 9.23094 14.4109 10.1584C14.8934 11.3209 16.0684 14.1909 16.2084 14.4859C16.3509 14.7809 16.4934 15.1809 16.2934 15.5684C16.1059 15.9684 15.9409 16.1459 15.6459 16.4859C15.3509 16.8259 15.0709 17.0859 14.7759 17.4509C14.5059 17.7684 14.2009 18.1084 14.5409 18.6959C14.8809 19.2709 16.0559 21.1884 17.7859 22.7284C20.0184 24.7159 21.8284 25.3509 22.4759 25.6209C22.9584 25.8209 23.5334 25.7734 23.8859 25.3984C24.3334 24.9159 24.8859 24.1159 25.4484 23.3284C25.8484 22.7634 26.3534 22.6934 26.8834 22.8934C27.4234 23.0809 30.2809 24.4934 30.8684 24.7859C31.4559 25.0809 31.8434 25.2209 31.9859 25.4684C32.1259 25.7159 32.1259 26.8784 31.6434 28.2434Z" fill="#FAFAFA"/>
</svg>
